<svg data-v-423bf9ae="" xmlns="http://www.w3.org/2000/svg" viewBox="0 0 214.79900317176885 182" class="iconAboveSlogan"><!----><!----><!----><g data-v-423bf9ae="" id="cc9b61e8-d118-4119-8cd2-1d93afc1fd4d" fill="white" transform="matrix(4.92206705261137,0,0,4.92206705261137,-0.8859683733486889,98.9146813932867)"><path d="M6.71 6.22L6.79 6.20L6.79 6.20Q7 6.20 7.13 6.36L7.13 6.36L7.13 6.36Q7.27 6.51 7.27 6.79L7.27 6.79L7.27 6.79Q7.27 6.93 7.21 7.15L7.21 7.15L7.21 7.15Q7.14 7.49 6.94 7.78L6.94 7.78L6.94 7.78Q6.75 8.06 6.48 8.23L6.48 8.23L6.48 8.23Q6.31 8.33 6.15 8.37L6.15 8.37L6.15 8.37Q5.98 8.40 5.73 8.43L5.73 8.43L5.63 8.44L5.59 8.44L5.63 9.51L5.63 9.51Q5.74 9.48 5.78 9.48L5.78 9.48L5.78 9.48Q5.85 9.48 5.94 9.51L5.94 9.51L5.94 9.51Q6.17 9.55 6.27 9.76L6.27 9.76L6.27 9.76Q6.36 9.91 6.36 10.14L6.36 10.14L6.36 10.14Q6.36 10.26 6.33 10.46L6.33 10.46L6.33 10.46Q6.31 10.50 6.31 10.57L6.31 10.57L6.31 10.57Q6.26 11.07 6.13 11.48L6.13 11.48L6.13 11.48Q5.99 11.89 5.73 12.24L5.73 12.24L5.73 12.24Q5.11 12.99 4.55 12.99L4.55 12.99L4.55 12.99Q4.45 12.99 4.40 12.98L4.40 12.98L4.40 12.98Q4.07 12.91 3.96 12.64L3.96 12.64L3.96 12.64Q3.84 12.38 3.79 12.04L3.79 12.04L3.79 12.04Q3.68 11.19 3.68 10.11L3.68 10.11L3.70 9.00L3.70 8.89L3.71 8.67L3.16 8.76L3.16 8.76Q2.74 8.86 2.41 8.97L2.41 8.97L2.30 9.03L2.30 9.03Q2.13 10.14 2.09 10.72L2.09 10.72L2.09 10.72Q2.06 10.95 2.06 11.40L2.06 11.40L2.06 11.40Q2.07 11.45 2.07 11.59L2.07 11.59L2.07 11.59Q2.07 11.72 2.06 11.79L2.06 11.79L2.06 11.79Q2.06 12.05 1.91 12.29L1.91 12.29L1.91 12.29Q1.76 12.52 1.53 12.63L1.53 12.63L1.53 12.63Q1.34 12.71 1.13 12.71L1.13 12.71L1.13 12.71Q0.76 12.71 0.49 12.46L0.49 12.46L0.49 12.46Q0.18 12.17 0.18 11.68L0.18 11.68L0.20 11.47L0.20 11.47Q0.24 10.74 0.36 10.02L0.36 10.02L0.36 10.02Q0.48 9.30 0.69 8.29L0.69 8.29L0.69 8.29Q0.85 7.39 0.92 6.94L0.92 6.94L0.92 6.94Q1.12 5.75 1.20 4.77L1.20 4.77L1.20 4.77Q1.26 4.16 1.27 3.64L1.27 3.64L1.27 3.58L1.27 3.58Q1.29 3.29 1.34 3.09L1.34 3.09L1.34 3.09Q1.39 2.90 1.55 2.73L1.55 2.73L1.55 2.73L1.55 2.73Q1.79 2.49 2.14 2.49L2.14 2.49L2.14 2.49Q2.51 2.49 2.74 2.73L2.74 2.73L2.74 2.73Q2.98 2.97 2.98 3.40L2.98 3.40L2.98 3.40Q2.98 3.63 2.97 3.72L2.97 3.72L2.95 3.79L2.87 4.83L2.87 4.83Q2.83 5.66 2.73 6.30L2.73 6.30L2.73 6.30Q2.70 6.58 2.62 7.03L2.62 7.03L2.62 7.03Q2.81 6.96 3.28 6.83L3.28 6.83L3.36 6.80L3.36 6.80Q3.57 6.76 3.72 6.71L3.72 6.71L3.72 6.71Q3.72 5.71 3.71 5.22L3.71 5.22L3.71 5.19L3.71 5.19Q3.71 3.95 3.74 3.33L3.74 3.33L3.74 3.33Q3.78 2.38 4.45 1.90L4.45 1.90L4.45 1.90L4.45 1.90Q4.69 1.74 4.94 1.74L4.94 1.74L4.94 1.74Q5.17 1.74 5.32 1.89L5.32 1.89L5.32 1.89Q5.49 2.10 5.49 2.44L5.49 2.44L5.49 2.44Q5.49 2.58 5.46 2.80L5.46 2.80L5.46 2.80Q5.45 2.86 5.45 2.95L5.45 2.95L5.45 2.95Q5.43 3.11 5.43 3.44L5.43 3.44L5.43 3.44Q5.43 3.70 5.46 4.23L5.46 4.23L5.47 4.62L5.49 5.19L5.53 6.37L6.61 6.23L6.71 6.22ZM9.00 10.21L9.00 10.21Q10.47 9.07 11.31 7.80L11.31 7.80L11.31 7.80Q10.19 7.46 9.06 6.44L9.06 6.44L9.06 6.44Q9.03 7.71 9.00 10.21L9.00 10.21ZM13.05 7.03L13.05 7.03Q13.15 7.10 13.15 7.21L13.15 7.21L13.15 7.21Q13.15 7.31 13.09 7.41L13.09 7.41L13.09 7.41Q12.35 8.83 11.13 9.94L11.13 9.94L11.13 9.94Q9.91 11.05 8.18 12.15L8.18 12.15L8.18 12.15Q8.01 12.25 7.80 12.33L7.80 12.33L7.80 12.33Q7.59 12.40 7.39 12.40L7.39 12.40L7.39 12.40Q7.18 12.40 7.03 12.29L7.03 12.29L7.03 12.29Q6.86 12.17 6.86 11.98L6.86 11.98L6.86 11.98Q6.86 11.75 7.13 11.56L7.13 11.56L7.13 11.56Q7.15 11.55 7.18 11.52L7.18 11.52L7.18 11.52Q7.21 11.49 7.27 11.47L7.27 11.47L7.32 7.99L7.32 7.99Q7.35 6.86 7.38 4.54L7.38 4.54L7.38 4.54Q7.36 4.51 7.36 4.44L7.36 4.44L7.36 4.44Q7.36 4.41 7.39 4.30L7.39 4.30L7.39 4.14L7.39 4.14Q7.41 3.88 7.76 3.69L7.76 3.69L7.76 3.69Q8.11 3.50 8.50 3.50L8.50 3.50L8.50 3.50Q8.76 3.50 8.93 3.60L8.93 3.60L8.93 3.60Q9.09 3.70 9.09 3.91L9.09 3.91L9.09 4.05L9.09 4.05Q10.78 6.38 12.78 6.90L12.78 6.90L12.78 6.90Q12.99 6.97 13.05 7.03L13.05 7.03ZM14.88 1.53L14.88 1.53Q14.91 1.26 15.33 1.04L15.33 1.04L15.33 1.04Q15.75 0.83 16.13 0.83L16.13 0.83L16.13 0.83Q16.58 0.83 16.56 1.16L16.56 1.16L16.56 1.16Q16.34 3.67 15.82 8.08L15.82 8.08L15.82 8.08Q15.48 11.09 15.39 11.98L15.39 11.98L15.39 11.98Q15.36 12.28 14.95 12.51L14.95 12.51L14.95 12.51Q14.53 12.74 14.14 12.74L14.14 12.74L14.14 12.74Q13.59 12.74 13.64 12.33L13.64 12.33L13.64 12.33Q14.13 7.52 14.88 1.53L14.88 1.53ZM23.14 7.70L23.14 7.70Q23.16 7.71 23.16 7.74L23.16 7.74L23.16 7.74Q23.25 8.62 23.25 9.65L23.25 9.65L23.25 9.65Q23.25 10.78 23.11 11.82L23.11 11.82L23.11 11.82Q23.07 12.10 22.68 12.31L22.68 12.31L22.68 12.31Q22.29 12.53 21.91 12.53L21.91 12.53L21.91 12.53Q21.69 12.53 21.56 12.44L21.56 12.44L21.56 12.44Q21.43 12.35 21.45 12.15L21.45 12.15L21.45 12.15Q21.59 10.86 21.59 9.87L21.59 9.87L21.59 9.87Q21.15 10.98 20.41 11.74L20.41 11.74L20.41 11.74Q19.67 12.50 18.69 12.50L18.69 12.50L18.69 12.50Q18.48 12.50 18.27 12.46L18.27 12.46L18.27 12.46Q17.36 12.31 16.97 11.63L16.97 11.63L16.97 11.63Q16.58 10.95 16.58 9.95L16.58 9.95L16.58 9.95Q16.58 8.97 16.90 7.83L16.90 7.83L16.90 7.83Q17.15 6.96 17.65 6.15L17.65 6.15L17.65 6.15Q18.14 5.35 18.86 4.83L18.86 4.83L18.86 4.83Q19.57 4.31 20.43 4.31L20.43 4.31L20.43 4.31Q21.15 4.31 21.49 4.59L21.49 4.59L21.49 4.59Q21.83 4.87 21.83 5.33L21.83 5.33L21.83 5.33Q21.83 5.91 21.41 6.60L21.41 6.60L21.41 6.60Q20.99 7.29 20.51 7.66L20.51 7.66L20.51 7.66Q20.37 7.76 20.13 7.82L20.13 7.82L20.13 7.82Q19.89 7.88 19.67 7.88L19.67 7.88L19.67 7.88Q19.42 7.88 19.26 7.81L19.26 7.81L19.26 7.81Q19.11 7.74 19.11 7.62L19.11 7.62L19.11 7.62Q19.11 7.43 19.39 7.20L19.39 7.20L19.39 7.20Q19.57 7.04 19.89 6.53L19.89 6.53L19.89 6.53Q20.20 6.02 20.20 5.73L20.20 5.73L20.20 5.73Q20.20 5.46 19.91 5.46L19.91 5.46L19.91 5.46Q19.49 5.46 18.91 6.72L18.91 6.72L18.91 6.72Q18.59 7.35 18.44 8.09L18.44 8.09L18.44 8.09Q18.24 8.99 18.24 9.74L18.24 9.74L18.24 9.74Q18.24 11.10 18.98 11.24L18.98 11.24L18.98 11.24Q19.28 11.28 19.57 10.80L19.57 10.80L19.57 10.80Q19.85 10.32 20.06 9.66L20.06 9.66L20.06 9.66Q19.88 9.76 19.52 9.93L19.52 9.93L19.52 9.93Q19.29 10.02 19.03 10.02L19.03 10.02L19.03 10.02Q18.75 10.02 18.61 9.88L18.61 9.88L18.61 9.88Q18.52 9.77 18.52 9.67L18.52 9.67L18.52 9.67Q18.52 9.55 18.60 9.43L18.60 9.43L18.60 9.43Q18.68 9.31 18.79 9.24L18.79 9.24L18.79 9.24Q20.57 8.02 22.18 7.29L22.18 7.29L22.18 7.29Q22.30 7.24 22.48 7.24L22.48 7.24L22.48 7.24Q22.76 7.24 22.97 7.37L22.97 7.37L22.97 7.37Q23.18 7.50 23.14 7.70L23.14 7.70ZM32.55 2.27L32.55 2.27Q32.87 3.91 33.05 5.30L33.05 5.30L33.05 5.30Q33.22 6.69 33.22 8.02L33.22 8.02L33.22 8.02Q33.22 8.65 33.18 9.27L33.18 9.27L33.18 9.27Q33.03 11.33 32.10 12.46L32.10 12.46L32.10 12.46Q31.63 13.02 30.97 13.02L30.97 13.02L30.97 13.02Q30.48 13.02 29.95 12.74L29.95 12.74L29.95 12.74Q29.43 12.46 28.81 12.00L28.81 12.00L28.81 12.00Q28.66 11.89 28.66 11.63L28.66 11.63L28.66 11.63Q28.66 11.37 28.83 11.03L28.83 11.03L28.83 11.03Q29.01 10.68 29.25 10.44L29.25 10.44L29.25 10.44Q29.50 10.21 29.71 10.21L29.71 10.21L29.71 10.21Q29.82 10.21 29.89 10.26L29.89 10.26L29.89 10.26Q30.55 10.75 30.90 10.96L30.90 10.96L30.90 10.96Q31.25 11.16 31.70 11.19L31.70 11.19L31.70 11.19Q31.79 10.84 31.84 10.02L31.84 10.02L31.84 10.02Q31.86 9.49 31.86 9.24L31.86 9.24L31.86 9.24Q31.86 8.69 31.78 7.60L31.78 7.60L31.78 7.60Q31.72 6.96 31.68 6.64L31.68 6.64L31.68 6.64Q30.63 7.76 29.92 7.76L29.92 7.76L29.92 7.76Q29.61 7.76 29.34 7.53L29.34 7.53L29.34 7.53Q29.01 7.22 28.88 6.71L28.88 6.71L28.88 6.71Q28.74 6.20 28.71 5.57L28.71 5.57L28.71 5.57Q28.73 4.91 29.08 4.26L29.08 4.26L29.08 4.26Q29.43 3.60 29.97 3.18L29.97 3.18L29.97 3.18Q30.44 2.81 30.94 2.81L30.94 2.81L30.94 2.81Q31.16 2.81 31.35 2.90L31.35 2.90L31.35 2.90Q31.53 2.55 31.82 2.28L31.82 2.28L31.82 2.28Q32.10 2.00 32.31 2.00L32.31 2.00L32.31 2.00Q32.49 2.00 32.55 2.27L32.55 2.27ZM29.99 4.13L29.99 4.13Q29.99 4.14 29.99 4.18L29.99 4.18L29.99 4.18Q29.99 4.21 29.97 4.24L29.97 4.24L29.97 4.24Q30.02 4.19 29.99 4.13L29.99 4.13ZM30.35 5.71L30.35 5.71Q30.55 5.96 30.80 5.96L30.80 5.96L30.80 5.96Q31.11 5.96 31.54 5.56L31.54 5.56L31.54 5.56Q31.47 4.98 31.28 3.99L31.28 3.99L31.28 3.99Q31.28 4.02 31.25 4.05L31.25 4.05L31.25 4.05Q31.14 4.24 30.91 4.49L30.91 4.49L30.91 4.49Q30.69 4.75 30.51 4.75L30.51 4.75L30.51 4.75Q30.42 4.75 30.39 4.72L30.39 4.72L30.39 4.72Q30.21 4.59 29.99 4.59L29.99 4.59L29.99 4.59Q30.07 5.36 30.35 5.71L30.35 5.71ZM35.76 1.53L35.76 1.53Q35.78 1.26 36.20 1.04L36.20 1.04L36.20 1.04Q36.62 0.83 37.00 0.83L37.00 0.83L37.00 0.83Q37.45 0.83 37.44 1.16L37.44 1.16L37.44 1.16Q37.21 3.67 36.69 8.08L36.69 8.08L36.69 8.08Q36.36 11.09 36.26 11.98L36.26 11.98L36.26 11.98Q36.23 12.28 35.82 12.51L35.82 12.51L35.82 12.51Q35.41 12.74 35.01 12.74L35.01 12.74L35.01 12.74Q34.47 12.74 34.51 12.33L34.51 12.33L34.51 12.33Q35.00 7.52 35.76 1.53L35.76 1.53ZM40.82 7.41L40.45 8.37L40.33 8.65L41.31 9.48L41.22 9.07L41.22 9.07Q41.12 8.68 40.82 7.41L40.82 7.41ZM42.04 4.28L42.04 4.28Q42.24 5.50 42.54 6.75L42.54 6.75L42.54 6.75Q42.84 8.01 43.27 9.63L43.27 9.63L43.27 9.63Q43.68 11.17 43.81 11.68L43.81 11.68L43.81 11.68Q43.82 11.72 43.82 11.80L43.82 11.80L43.82 11.80Q43.82 12.14 43.44 12.38L43.44 12.38L43.44 12.38Q43.06 12.63 42.66 12.63L42.66 12.63L42.66 12.63Q42.32 12.63 42.14 12.45L42.14 12.45L42.14 12.45Q41.73 12.01 41.29 11.62L41.29 11.62L41.29 11.62Q40.84 11.23 40.11 10.65L40.11 10.65L39.65 10.28L39.65 10.28Q39.06 11.54 38.74 12.14L38.74 12.14L38.74 12.14Q38.64 12.35 38.23 12.52L38.23 12.52L38.23 12.52Q37.81 12.70 37.46 12.70L37.46 12.70L37.46 12.70Q37.07 12.70 37.07 12.45L37.07 12.45L37.07 12.45Q37.07 12.38 37.11 12.28L37.11 12.28L37.11 12.28Q37.53 11.24 38.11 9.90L38.11 9.90L38.40 9.18L38.40 9.18Q38.05 8.83 38.05 8.83L38.05 8.83L38.05 8.83Q37.95 8.74 37.95 8.61L37.95 8.61L37.95 8.61Q37.95 8.37 38.26 8.16L38.26 8.16L38.26 8.16Q38.57 7.94 38.95 7.87L38.95 7.87L38.95 7.87Q39.62 6.26 40.21 4.59L40.21 4.59L40.21 4.59Q40.26 4.40 40.56 4.25L40.56 4.25L40.56 4.25Q40.87 4.10 41.20 4.06L41.20 4.06L41.20 4.06Q41.44 3.99 41.61 3.99L41.61 3.99L41.61 3.99Q42 3.99 42.04 4.28L42.04 4.28Z"></path></g><!----><g data-v-423bf9ae="" id="521f08e4-adf3-43c3-a083-faec1285de7a" transform="matrix(5.454545454545454,0,0,5.454545454545454,-1.4909148649735755,-63.563632965087876)" stroke="none" fill="white"><path clip-rule="evenodd" d="M26.7 13.4L25.2 16l6.6 4-6.6 4 1.5 2.6 8.7-5.3v-2.6l-8.7-5.3zm-13.4 0l-8.7 5.3v2.6l8.7 5.3 1.5-2.6-6.6-4 6.6-4-1.5-2.6zm3 14.2l2.9.7 3.5-15.8-2.9-.7-3.5 15.8z"></path></g><!----><g data-v-423bf9ae="" id="101bd30d-7207-46f6-8345-3a0c79205613" fill="white" transform="matrix(0.5789712128792425,0,0,0.5789712128792425,27.155653664621212,202.16076519962797)"><path d="M5.65 2.63L5.65 2.63Q5.36 1.84 4.65 1.42L4.65 1.42L4.65 1.42Q3.99 1.03 3.10 1.02L3.10 1.02L3.10 1.02Q2.09 1.00 0.83 1.39L0.83 1.39L0.83 1.39Q0.11 1.61 0.16 1.80L0.16 1.80L0.16 1.80Q0.23 2.04 0.95 1.83L0.95 1.83L0.95 1.83Q1.14 1.76 1.33 1.72L1.33 1.72L1.33 1.72Q1.34 1.72 1.39 1.70L1.39 1.70L1.39 1.70Q1.44 1.69 1.46 1.69L1.46 1.69L1.46 1.69Q1.52 1.67 1.59 1.66L1.59 1.66L1.59 1.66Q1.65 1.65 1.76 1.63L1.76 1.63L1.76 1.63Q1.76 1.63 1.86 1.62L1.86 1.62L1.86 1.62Q1.93 1.61 2.06 1.61L2.06 1.61L2.06 1.61Q2.06 1.61 2.15 1.61L2.15 1.61L2.15 1.61Q2.88 1.61 3.44 2.00L3.44 2.00L3.44 2.00Q4.05 2.43 4.27 3.27L4.27 3.27L4.27 3.27Q4.46 3.98 4.35 4.81L4.35 4.81L4.35 4.81Q4.10 6.56 2.91 7.40L2.91 7.40L2.91 7.40Q2.87 7.42 2.81 7.46L2.81 7.46L2.81 7.46Q2.82 7.46 2.80 7.46L2.80 7.46L2.80 7.46Q2.79 7.47 2.77 7.48L2.77 7.48L2.77 7.48Q2.71 7.48 2.71 7.49L2.71 7.49L2.71 7.49Q2.61 7.49 2.53 7.47L2.53 7.47L2.53 7.47Q1.85 7.36 1.78 6.66L1.78 6.66L1.78 6.66Q1.77 6.60 1.67 6.58L1.67 6.58L1.67 6.58Q1.68 6.55 1.70 6.49L1.70 6.49L1.70 6.49Q1.70 6.44 1.71 6.42L1.71 6.42L1.71 6.42Q2.25 3.25 2.57 2.24L2.57 2.24L2.57 2.24Q2.65 1.98 1.99 2.10L1.99 2.10L1.99 2.10Q1.68 2.15 1.43 2.27L1.43 2.27L1.43 2.27Q1.16 2.40 1.13 2.50L1.13 2.50L1.13 2.50Q0.81 3.51 0.25 6.77L0.25 6.77L0.25 6.77Q0.01 8.13-0.21 8.89L-0.21 8.89L-0.21 8.89Q-0.66 10.44-0.70 10.94L-0.70 10.94L-0.70 10.94Q-0.70 11.01-0.48 11.02L-0.48 11.02L-0.48 11.02Q-0.27 11.03 0.01 10.98L0.01 10.98L0.01 10.98Q0.74 10.84 0.77 10.55L0.77 10.55L0.77 10.55Q0.80 10.13 1.26 8.54L1.26 8.54L1.26 8.54Q1.33 8.31 1.39 8.03L1.39 8.03L1.39 8.03Q2.03 8.13 2.88 7.92L2.88 7.92L2.88 7.92Q4.59 7.52 5.42 5.75L5.42 5.75L5.42 5.75Q6.20 4.09 5.65 2.63L5.65 2.63ZM16.08 5.31L16.08 5.31Q15.93 6.24 15.03 7.18L15.03 7.18L15.03 7.18Q14.84 7.38 14.60 7.58L14.60 7.58L14.60 7.58Q14.54 7.63 14.48 7.68L14.48 7.68L14.48 7.68Q14.26 7.59 14.01 7.58L14.01 7.58L14.01 7.58Q14.57 4.74 14.71 2.66L14.71 2.66L14.71 2.66Q14.98 2.80 15.22 2.99L15.22 2.99L15.22 2.99Q15.73 3.39 15.96 4.03L15.96 4.03L15.96 4.03Q16.19 4.65 16.08 5.31L16.08 5.31ZM13.10 2.40L13.10 2.40Q13.10 2.40 13.12 2.39L13.12 2.39L13.12 2.39Q13.11 2.40 13.10 2.40L13.10 2.40ZM18.04 11.42L18.04 11.42Q17.31 10.88 15.78 8.99L15.78 8.99L15.78 8.99Q15.11 8.17 14.99 8.05L14.99 8.05L14.99 8.05Q15.45 7.84 15.88 7.50L15.88 7.50L15.88 7.50Q17.08 6.56 17.44 5.41L17.44 5.41L17.44 5.41Q17.68 4.60 17.48 3.84L17.48 3.84L17.48 3.84Q17.27 3.07 16.65 2.53L16.65 2.53L16.65 2.53Q15.40 1.46 13.33 1.88L13.33 1.88L13.33 1.88Q13.20 1.91 13.00 1.96L13.00 1.96L13.00 1.96Q12.26 2.14 12.33 2.37L12.33 2.37L12.33 2.37Q12.39 2.58 13.10 2.40L13.10 2.40L13.10 2.40Q13.17 2.39 13.21 2.38L13.21 2.38L13.21 2.38Q13.25 2.37 13.29 2.37L13.29 2.37L13.29 2.37Q13.17 5.11 11.94 10.79L11.94 10.79L11.94 10.79Q11.88 11.04 12.52 10.92L12.52 10.92L12.52 10.92Q12.82 10.87 13.08 10.75L13.08 10.75L13.08 10.75Q13.36 10.62 13.38 10.53L13.38 10.53L13.38 10.53Q13.67 9.17 13.77 8.72L13.77 8.72L13.77 8.72Q13.77 8.72 13.77 8.72L13.77 8.72L13.77 8.72Q13.78 8.72 13.78 8.72L13.78 8.72L13.78 8.72Q13.89 8.85 14.57 9.70L14.57 9.70L14.57 9.70Q15.89 11.34 16.66 11.92L16.66 11.92L16.66 11.92Q16.88 12.09 17.60 11.83L17.60 11.83L17.60 11.83Q17.79 11.76 17.93 11.67L17.93 11.67L17.93 11.67Q18.18 11.52 18.04 11.42L18.04 11.42ZM27.67 5.20L27.67 5.20Q27.54 6.64 27.28 7.92L27.28 7.92L27.28 7.92Q26.87 9.88 26.09 10.64L26.09 10.64L26.09 10.64Q26.00 10.55 25.93 10.38L25.93 10.38L25.93 10.38Q25.74 9.97 25.76 9.03L25.76 9.03L25.76 9.03Q25.79 7.34 26.36 5.48L26.36 5.48L26.36 5.48Q26.86 3.85 27.56 3.01L27.56 3.01L27.56 3.01Q27.63 3.25 27.68 3.62L27.68 3.62L27.68 3.62Q27.75 4.21 27.67 5.20L27.67 5.20ZM28.59 1.96L28.59 1.96Q28.39 1.79 27.65 2.05L27.65 2.05L27.65 2.05Q27.15 2.24 27.17 2.39L27.17 2.39L27.17 2.39Q26.92 2.48 26.74 2.63L26.74 2.63L26.74 2.63Q25.76 3.40 25.09 5.22L25.09 5.22L25.09 5.22Q24.55 6.70 24.36 8.50L24.36 8.50L24.36 8.50Q24.27 9.28 24.30 9.92L24.30 9.92L24.30 9.92Q24.34 10.77 24.71 11.13L24.71 11.13L24.71 11.13Q24.89 11.31 25.32 11.33L25.32 11.33L25.32 11.33Q25.86 11.36 26.69 11.02L26.69 11.02L26.69 11.02Q27.37 10.74 27.89 9.94L27.89 9.94L27.89 9.94Q28.36 9.21 28.68 7.85L28.68 7.85L28.68 7.85Q28.89 6.94 29.01 5.84L29.01 5.84L29.01 5.84Q29.18 4.44 29.18 3.78L29.18 3.78L29.18 3.78Q29.16 2.45 28.59 1.96L28.59 1.96ZM39.11 7.83L39.11 7.83L39.11 7.83Q39.12 7.83 39.15 7.81L39.15 7.81L39.15 7.81Q39.12 7.83 39.11 7.83L39.11 7.83ZM40.67 1.67L40.67 1.67Q40.29 0.90 38.94 1.50L38.94 1.50L38.94 1.50Q38.37 1.75 37.80 2.55L37.80 2.55L37.80 2.55Q37.34 3.20 36.91 4.06L36.91 4.06L36.91 4.06Q35.99 5.91 35.71 8.21L35.71 8.21L35.71 8.21Q35.59 9.15 35.58 9.80L35.58 9.80L35.58 9.80Q35.56 10.74 35.99 11.05L35.99 11.05L35.99 11.05Q36.45 11.39 37.58 11.00L37.58 11.00L37.58 11.00Q38.23 10.77 38.83 10.19L38.83 10.19L38.83 10.19Q39.34 9.71 39.66 8.87L39.66 8.87L39.66 8.87Q39.80 8.48 39.86 8.11L39.86 8.11L39.86 8.11Q39.92 7.72 39.81 7.57L39.81 7.57L39.81 7.57Q39.63 7.29 38.96 7.43L38.96 7.43L38.96 7.43Q38.24 7.58 37.63 8.07L37.63 8.07L37.63 8.07Q37.45 8.21 37.65 8.27L37.65 8.27L37.65 8.27Q37.80 8.31 37.97 8.30L37.97 8.30L37.97 8.30Q38.20 8.28 38.42 8.21L38.42 8.21L38.42 8.21Q38.44 8.48 38.25 9.04L38.25 9.04L38.25 9.04Q38.06 9.59 37.80 9.99L37.80 9.99L37.80 9.99Q37.75 10.06 37.72 10.08L37.72 10.08L37.72 10.08Q37.61 10.21 37.52 10.31L37.52 10.31L37.52 10.31Q37.43 10.40 37.30 10.51L37.30 10.51L37.30 10.51Q37.25 10.45 37.19 10.36L37.19 10.36L37.19 10.36Q37.07 10.13 37.04 9.65L37.04 9.65L37.04 9.65Q37.03 9.36 37.13 8.16L37.13 8.16L37.13 8.16Q37.32 5.98 38.27 3.95L38.27 3.95L38.27 3.95Q38.80 2.84 39.28 2.21L39.28 2.21L39.28 2.21Q39.40 2.51 39.41 2.81L39.41 2.81L39.41 2.81Q39.42 3.19 39.23 3.34L39.23 3.34L39.23 3.34Q39.06 3.47 39.27 3.53L39.27 3.53L39.27 3.53Q39.42 3.58 39.57 3.57L39.57 3.57L39.57 3.57Q40.17 3.51 40.55 3.22L40.55 3.22L40.55 3.22Q40.86 2.98 40.86 2.48L40.86 2.48L40.86 2.48Q40.86 2.06 40.67 1.67L40.67 1.67ZM51.21 5.31L51.21 5.31Q51.06 6.24 50.16 7.18L50.16 7.18L50.16 7.18Q49.97 7.38 49.73 7.58L49.73 7.58L49.73 7.58Q49.67 7.63 49.61 7.68L49.61 7.68L49.61 7.68Q49.39 7.59 49.14 7.58L49.14 7.58L49.14 7.58Q49.70 4.74 49.84 2.66L49.84 2.66L49.84 2.66Q50.11 2.80 50.35 2.99L50.35 2.99L50.35 2.99Q50.86 3.39 51.09 4.03L51.09 4.03L51.09 4.03Q51.32 4.65 51.21 5.31L51.21 5.31ZM48.23 2.40L48.23 2.40Q48.23 2.40 48.25 2.39L48.25 2.39L48.25 2.39Q48.24 2.40 48.23 2.40L48.23 2.40ZM53.17 11.42L53.17 11.42Q52.44 10.88 50.91 8.99L50.91 8.99L50.91 8.99Q50.24 8.17 50.12 8.05L50.12 8.05L50.12 8.05Q50.58 7.84 51.01 7.50L51.01 7.50L51.01 7.50Q52.21 6.56 52.57 5.41L52.57 5.41L52.57 5.41Q52.81 4.60 52.61 3.84L52.61 3.84L52.61 3.84Q52.40 3.07 51.78 2.53L51.78 2.53L51.78 2.53Q50.53 1.46 48.46 1.88L48.46 1.88L48.46 1.88Q48.33 1.91 48.13 1.96L48.13 1.96L48.13 1.96Q47.39 2.14 47.46 2.37L47.46 2.37L47.46 2.37Q47.52 2.58 48.23 2.40L48.23 2.40L48.23 2.40Q48.30 2.39 48.34 2.38L48.34 2.38L48.34 2.38Q48.38 2.37 48.42 2.37L48.42 2.37L48.42 2.37Q48.30 5.11 47.07 10.79L47.07 10.79L47.07 10.79Q47.01 11.04 47.65 10.92L47.65 10.92L47.65 10.92Q47.95 10.87 48.21 10.75L48.21 10.75L48.21 10.75Q48.49 10.62 48.51 10.53L48.51 10.53L48.51 10.53Q48.80 9.17 48.90 8.72L48.90 8.72L48.90 8.72Q48.90 8.72 48.90 8.72L48.90 8.72L48.90 8.72Q48.91 8.72 48.91 8.72L48.91 8.72L48.91 8.72Q49.02 8.85 49.70 9.70L49.70 9.70L49.70 9.70Q51.02 11.34 51.79 11.92L51.79 11.92L51.79 11.92Q52.01 12.09 52.73 11.83L52.73 11.83L52.73 11.83Q52.92 11.76 53.06 11.67L53.06 11.67L53.06 11.67Q53.31 11.52 53.17 11.42L53.17 11.42ZM62.42 7.89L62.42 7.89Q62.32 7.90 61.41 7.84L61.41 7.84L61.41 7.84Q61.82 6.63 62.28 5.57L62.28 5.57L62.28 5.57Q62.45 5.18 62.99 3.95L62.99 3.95L62.99 3.95Q62.97 4.61 62.79 7.85L62.79 7.85L62.79 7.85Q62.62 7.87 62.42 7.89L62.42 7.89ZM64.23 1.18L64.23 1.18Q64.05 1.09 63.66 1.16L63.66 1.16L63.66 1.16Q63.02 1.27 62.81 1.55L62.81 1.55L62.81 1.55Q62.61 1.80 61.83 3.58L61.83 3.58L61.83 3.58Q61.69 3.90 61.33 4.70L61.33 4.70L61.33 4.70Q61.02 5.42 60.84 5.83L60.84 5.83L60.84 5.83Q60.42 6.79 60.05 7.86L60.05 7.86L60.05 7.86Q59.12 7.97 58.47 8.37L58.47 8.37L58.47 8.37Q58.30 8.48 58.32 8.58L58.32 8.58L58.32 8.58Q58.35 8.67 58.56 8.68L58.56 8.68L58.56 8.68Q59.08 8.70 59.55 8.43L59.55 8.43L59.55 8.43Q59.69 8.41 59.74 8.41L59.74 8.41L59.74 8.41Q59.80 8.41 59.86 8.41L59.86 8.41L59.86 8.41Q59.54 9.39 59.22 10.53L59.22 10.53L59.22 10.53Q59.15 10.79 59.81 10.67L59.81 10.67L59.81 10.67Q60.11 10.62 60.36 10.49L60.36 10.49L60.36 10.49Q60.63 10.37 60.66 10.27L60.66 10.27L60.66 10.27Q60.93 9.32 61.20 8.48L61.20 8.48L61.20 8.48Q61.50 8.50 61.69 8.47L61.69 8.47L61.69 8.47Q62.40 8.39 62.75 8.46L62.75 8.46L62.75 8.46Q62.64 10.55 62.64 12.02L62.64 12.02L62.64 12.02Q62.64 12.10 62.87 12.11L62.87 12.11L62.87 12.11Q63.09 12.12 63.38 12.06L63.38 12.06L63.38 12.06Q64.11 11.91 64.11 11.62L64.11 11.62L64.11 11.62Q64.11 9.90 64.31 6.45L64.31 6.45L64.31 6.45Q64.51 3.00 64.51 1.27L64.51 1.27L64.51 1.27Q64.51 1.18 64.23 1.18L64.23 1.18ZM79.01 2.21L79.01 2.21Q78.97 2.05 78.42 2.15L78.42 2.15L78.42 2.15Q77.72 2.28 77.55 2.54L77.55 2.54L77.55 2.54Q76.68 4.03 75.74 6.51L75.74 6.51L75.74 6.41L75.74 6.41Q75.74 5.55 75.58 2.12L75.58 2.12L75.58 2.12Q75.57 2.03 75.34 2.02L75.34 2.02L75.34 2.02Q75.20 1.92 74.78 2.00L74.78 2.00L74.78 2.00Q74.07 2.13 73.92 2.39L73.92 2.39L73.92 2.39Q71.79 6.30 71.18 11.14L71.18 11.14L71.18 11.14Q71.17 11.27 71.55 11.23L71.55 11.23L71.55 11.23Q71.80 11.21 71.98 11.16L71.98 11.16L71.98 11.16Q72.62 10.99 72.65 10.75L72.65 10.75L72.65 10.75Q73.05 7.51 74.22 4.58L74.22 4.58L74.22 4.58Q74.27 5.81 74.28 6.71L74.28 6.71L74.28 6.71Q74.29 8.26 74.20 8.86L74.20 8.86L74.20 8.86Q74.02 10.15 74.01 10.99L74.01 10.99L74.01 10.99Q74.01 11.20 74.70 11.03L74.70 11.03L74.70 11.03Q75.37 10.86 75.46 10.66L75.46 10.66L75.46 10.66Q75.94 9.61 76.66 7.67L76.66 7.67L76.66 7.67Q77.44 5.54 77.81 4.66L77.81 4.66L77.81 4.66Q77.85 5.91 77.62 7.85L77.62 7.85L77.62 7.85Q77.28 10.57 77.25 11.04L77.25 11.04L77.25 11.04Q77.24 11.12 77.46 11.12L77.46 11.12L77.46 11.12Q77.68 11.13 77.96 11.08L77.96 11.08L77.96 11.08Q78.68 10.94 78.71 10.65L78.71 10.65L78.71 10.65Q78.76 9.88 78.94 8.54L78.94 8.54L78.94 8.54Q79.13 7.03 79.19 6.43L79.19 6.43L79.19 6.43Q79.43 3.95 79.01 2.21L79.01 2.21ZM89.22 7.89L89.22 7.89Q89.11 7.90 88.21 7.84L88.21 7.84L88.21 7.84Q88.62 6.63 89.08 5.57L89.08 5.57L89.08 5.57Q89.24 5.18 89.79 3.95L89.79 3.95L89.79 3.95Q89.77 4.61 89.58 7.85L89.58 7.85L89.58 7.85Q89.41 7.87 89.22 7.89L89.22 7.89ZM91.03 1.18L91.03 1.18Q90.84 1.09 90.46 1.16L90.46 1.16L90.46 1.16Q89.82 1.27 89.61 1.55L89.61 1.55L89.61 1.55Q89.41 1.80 88.63 3.58L88.63 3.58L88.63 3.58Q88.49 3.90 88.13 4.70L88.13 4.70L88.13 4.70Q87.81 5.42 87.64 5.83L87.64 5.83L87.64 5.83Q87.22 6.79 86.84 7.86L86.84 7.86L86.84 7.86Q85.92 7.97 85.27 8.37L85.27 8.37L85.27 8.37Q85.09 8.48 85.12 8.58L85.12 8.58L85.12 8.58Q85.15 8.67 85.35 8.68L85.35 8.68L85.35 8.68Q85.87 8.70 86.34 8.43L86.34 8.43L86.34 8.43Q86.49 8.41 86.54 8.41L86.54 8.41L86.54 8.41Q86.60 8.41 86.66 8.41L86.66 8.41L86.66 8.41Q86.34 9.39 86.02 10.53L86.02 10.53L86.02 10.53Q85.95 10.79 86.60 10.67L86.60 10.67L86.60 10.67Q86.91 10.62 87.16 10.49L87.16 10.49L87.16 10.49Q87.43 10.37 87.46 10.27L87.46 10.27L87.46 10.27Q87.73 9.32 88.00 8.48L88.00 8.48L88.00 8.48Q88.29 8.50 88.49 8.47L88.49 8.47L88.49 8.47Q89.20 8.39 89.55 8.46L89.55 8.46L89.55 8.46Q89.44 10.55 89.44 12.02L89.44 12.02L89.44 12.02Q89.44 12.10 89.67 12.11L89.67 12.11L89.67 12.11Q89.89 12.12 90.17 12.06L90.17 12.06L90.17 12.06Q90.90 11.91 90.90 11.62L90.90 11.62L90.90 11.62Q90.90 9.90 91.11 6.45L91.11 6.45L91.11 6.45Q91.31 3.00 91.31 1.27L91.31 1.27L91.31 1.27Q91.31 1.18 91.03 1.18L91.03 1.18ZM103.56 3.48L103.56 3.48Q103.52 1.70 102.68 1.01L102.68 1.01L102.68 1.01Q102.21 0.64 101.32 0.68L101.32 0.68L101.32 0.68Q100.32 0.72 99.07 1.40L99.07 1.40L99.07 1.40Q98.88 1.50 98.92 1.60L98.92 1.60L98.92 1.60Q98.95 1.70 99.15 1.71L99.15 1.71L99.15 1.71Q99.65 1.72 100.18 1.44L100.18 1.44L100.18 1.44Q100.19 1.43 100.21 1.42L100.21 1.42L100.21 1.42Q100.26 1.39 100.34 1.35L100.34 1.35L100.34 1.35Q100.38 1.34 100.45 1.31L100.45 1.31L100.45 1.31Q100.48 1.29 100.59 1.26L100.59 1.26L100.60 1.26L100.60 1.26Q100.60 1.25 100.60 1.26L100.60 1.26L100.60 1.26Q100.61 1.25 100.63 1.25L100.63 1.25L100.63 1.25Q100.67 1.25 100.71 1.26L100.71 1.26L100.71 1.26Q100.71 1.26 100.73 1.26L100.73 1.26L100.73 1.26Q100.78 1.26 100.78 1.26L100.78 1.26L100.78 1.26Q100.86 1.28 100.97 1.31L100.97 1.31L100.97 1.31Q100.97 1.31 100.97 1.31L100.97 1.31L100.97 1.31Q100.97 1.31 100.98 1.31L100.98 1.31L100.98 1.31Q101.01 1.33 101.06 1.35L101.06 1.35L101.06 1.35Q101.11 1.37 101.19 1.43L101.19 1.43L101.19 1.43Q101.32 1.51 101.45 1.65L101.45 1.65L101.45 1.65Q101.65 1.85 101.81 2.23L101.81 2.23L101.81 2.23Q102.40 3.66 101.87 6.11L101.87 6.11L101.87 6.11Q101.52 7.70 100.81 8.97L100.81 8.97L100.81 8.97Q100.45 9.60 100.05 10.03L100.05 10.03L100.05 10.03Q99.87 10.22 99.66 10.39L99.66 10.39L99.66 10.39Q100.75 5.68 101.21 1.78L101.21 1.78L101.21 1.78Q101.22 1.71 101.00 1.70L101.00 1.70L101.00 1.70Q100.78 1.69 100.51 1.74L100.51 1.74L100.51 1.74Q99.78 1.87 99.75 2.17L99.75 2.17L99.75 2.17Q99.28 6.19 98.10 11.16L98.10 11.16L98.10 11.16Q98.04 11.42 98.68 11.30L98.68 11.30L98.68 11.30Q98.98 11.25 99.24 11.12L99.24 11.12L99.24 11.12Q99.44 11.03 99.50 10.97L99.50 10.97L99.50 10.97Q99.76 10.93 100.15 10.77L100.15 10.77L100.15 10.77Q101.71 10.12 102.70 7.78L102.70 7.78L102.70 7.78Q103.61 5.63 103.56 3.48L103.56 3.48ZM113.33 5.20L113.33 5.20Q113.21 6.64 112.94 7.92L112.94 7.92L112.94 7.92Q112.53 9.88 111.76 10.64L111.76 10.64L111.76 10.64Q111.67 10.55 111.60 10.38L111.60 10.38L111.60 10.38Q111.41 9.97 111.43 9.03L111.43 9.03L111.43 9.03Q111.45 7.34 112.03 5.48L112.03 5.48L112.03 5.48Q112.53 3.85 113.22 3.01L113.22 3.01L113.22 3.01Q113.30 3.25 113.35 3.62L113.35 3.62L113.35 3.62Q113.42 4.21 113.33 5.20L113.33 5.20ZM114.26 1.96L114.26 1.96Q114.06 1.79 113.32 2.05L113.32 2.05L113.32 2.05Q112.82 2.24 112.84 2.39L112.84 2.39L112.84 2.39Q112.59 2.48 112.41 2.63L112.41 2.63L112.41 2.63Q111.43 3.40 110.76 5.22L110.76 5.22L110.76 5.22Q110.22 6.70 110.02 8.50L110.02 8.50L110.02 8.50Q109.94 9.28 109.97 9.92L109.97 9.92L109.97 9.92Q110.01 10.77 110.37 11.13L110.37 11.13L110.37 11.13Q110.56 11.31 110.99 11.33L110.99 11.33L110.99 11.33Q111.53 11.36 112.36 11.02L112.36 11.02L112.36 11.02Q113.04 10.74 113.56 9.94L113.56 9.94L113.56 9.94Q114.03 9.21 114.34 7.85L114.34 7.85L114.34 7.85Q114.56 6.94 114.68 5.84L114.68 5.84L114.68 5.84Q114.84 4.44 114.84 3.78L114.84 3.78L114.84 3.78Q114.83 2.45 114.26 1.96L114.26 1.96ZM125.58 5.31L125.58 5.31Q125.43 6.24 124.54 7.18L124.54 7.18L124.54 7.18Q124.35 7.38 124.11 7.58L124.11 7.58L124.11 7.58Q124.04 7.63 123.98 7.68L123.98 7.68L123.98 7.68Q123.76 7.59 123.51 7.58L123.51 7.58L123.51 7.58Q124.07 4.74 124.22 2.66L124.22 2.66L124.22 2.66Q124.48 2.80 124.72 2.99L124.72 2.99L124.72 2.99Q125.23 3.39 125.47 4.03L125.47 4.03L125.47 4.03Q125.69 4.65 125.58 5.31L125.58 5.31ZM122.61 2.40L122.61 2.40Q122.61 2.40 122.62 2.39L122.62 2.39L122.62 2.39Q122.62 2.40 122.61 2.40L122.61 2.40ZM127.54 11.42L127.54 11.42Q126.81 10.88 125.28 8.99L125.28 8.99L125.28 8.99Q124.61 8.17 124.50 8.05L124.50 8.05L124.50 8.05Q124.95 7.84 125.38 7.50L125.38 7.50L125.38 7.50Q126.59 6.56 126.94 5.41L126.94 5.41L126.94 5.41Q127.19 4.60 126.98 3.84L126.98 3.84L126.98 3.84Q126.77 3.07 126.15 2.53L126.15 2.53L126.15 2.53Q124.91 1.46 122.83 1.88L122.83 1.88L122.83 1.88Q122.71 1.91 122.51 1.96L122.51 1.96L122.51 1.96Q121.77 2.14 121.83 2.37L121.83 2.37L121.83 2.37Q121.89 2.58 122.60 2.40L122.60 2.40L122.60 2.40Q122.67 2.39 122.72 2.38L122.72 2.38L122.72 2.38Q122.76 2.37 122.79 2.37L122.79 2.37L122.79 2.37Q122.68 5.11 121.44 10.79L121.44 10.79L121.44 10.79Q121.39 11.04 122.02 10.92L122.02 10.92L122.02 10.92Q122.33 10.87 122.58 10.75L122.58 10.75L122.58 10.75Q122.86 10.62 122.88 10.53L122.88 10.53L122.88 10.53Q123.18 9.17 123.27 8.72L123.27 8.72L123.27 8.72Q123.28 8.72 123.28 8.72L123.28 8.72L123.28 8.72Q123.29 8.72 123.29 8.72L123.29 8.72L123.29 8.72Q123.40 8.85 124.08 9.70L124.08 9.70L124.08 9.70Q125.40 11.34 126.16 11.92L126.16 11.92L126.16 11.92Q126.39 12.09 127.11 11.83L127.11 11.83L127.11 11.83Q127.29 11.76 127.44 11.67L127.44 11.67L127.44 11.67Q127.68 11.52 127.54 11.42L127.54 11.42ZM149.15 10.27L149.15 10.27Q149.15 10.27 149.14 10.28L149.14 10.28L149.14 10.28Q149.15 10.27 149.15 10.27L149.15 10.27L149.15 10.27L149.15 10.27ZM152.98 0.67L152.98 0.67Q152.91 0.42 152.18 0.62L152.18 0.62L152.18 0.62Q151.45 0.82 151.52 1.06L151.52 1.06L151.52 1.06Q151.72 1.79 151.75 2.47L151.75 2.47L151.75 2.47Q151.77 2.95 151.63 4.01L151.63 4.01L151.63 4.01Q151.42 5.59 151.07 6.73L151.07 6.73L151.07 6.73Q150.78 7.65 150.17 8.81L150.17 8.81L150.17 8.81Q150.19 8.78 150.13 8.90L150.13 8.90L150.13 8.90Q150.05 7.21 150.05 1.98L150.05 1.98L150.05 1.98Q150.05 1.89 149.83 1.88L149.83 1.88L149.83 1.88Q149.63 1.87 149.34 1.94L149.34 1.94L149.34 1.94Q148.63 2.10 148.59 2.37L148.59 2.37L148.59 2.37Q148.22 4.98 147.62 6.81L147.62 6.81L147.62 6.81Q147.12 8.30 146.43 9.37L146.43 9.37L146.43 9.37Q146.17 8.18 146.28 5.77L146.28 5.77L146.28 5.77Q146.29 5.55 146.34 3.78L146.34 3.78L146.34 3.78Q146.36 2.54 146.76 1.94L146.76 1.94L146.76 1.94Q146.85 1.80 146.54 1.79L146.54 1.79L146.54 1.79Q146.33 1.78 146.17 1.81L146.17 1.81L146.17 1.81Q145.50 1.93 145.32 2.21L145.32 2.21L145.32 2.21Q144.94 2.78 144.88 3.94L144.88 3.94L144.88 3.94Q144.86 4.30 144.85 4.96L144.85 4.96L144.85 4.96Q144.84 5.65 144.83 5.97L144.83 5.97L144.83 5.97Q144.67 9.35 145.30 10.80L145.30 10.80L145.30 10.80Q145.38 10.96 145.90 10.87L145.90 10.87L145.90 10.87Q146.47 10.77 146.70 10.55L146.70 10.55L146.70 10.55Q147.85 9.43 148.61 7.75L148.61 7.75L148.61 7.75Q148.65 9.30 148.74 10.60L148.74 10.60L148.74 10.60Q148.75 10.77 149.20 10.69L149.20 10.69L149.20 10.69Q149.49 10.64 149.72 10.57L149.72 10.57L149.72 10.57Q150.65 10.25 151.39 8.96L151.39 8.96L151.39 8.96Q152.02 7.89 152.40 6.79L152.40 6.79L152.40 6.79Q152.81 5.63 153.06 3.89L153.06 3.89L153.06 3.89Q153.22 2.77 153.21 2.25L153.21 2.25L153.21 2.25Q153.21 1.53 152.98 0.67L152.98 0.67ZM164.01 1.42L164.01 1.42Q163.30 1.19 162.12 1.57L162.12 1.57L162.12 1.57Q160.61 2.06 160.05 3.77L160.05 3.77L160.05 3.77Q159.70 4.83 159.88 6.11L159.88 6.11L159.88 6.11Q159.97 6.76 160.23 7.16L160.23 7.16L160.23 7.16Q159.82 7.38 159.52 7.70L159.52 7.70L159.52 7.70Q158.53 8.80 158.63 10.01L158.63 10.01L158.63 10.01Q158.70 10.70 159.18 11.11L159.18 11.11L159.18 11.11Q159.58 11.44 160.41 11.42L160.41 11.42L160.41 11.42Q161.24 11.39 161.94 10.95L161.94 10.95L161.94 10.95Q162.70 10.49 163.00 9.76L163.00 9.76L163.00 9.76Q163.06 9.61 162.78 9.60L162.78 9.60L162.78 9.60Q162.61 9.59 162.42 9.63L162.42 9.63L162.42 9.63Q161.66 9.76 161.56 10.02L161.56 10.02L161.56 10.02Q161.36 10.51 161.01 10.80L161.01 10.80L161.01 10.80Q161 10.81 160.99 10.82L160.99 10.82L160.99 10.82Q160.94 10.81 160.93 10.81L160.93 10.81L160.93 10.81Q160.86 10.79 160.78 10.75L160.78 10.75L160.78 10.75Q160.62 10.68 160.46 10.52L160.46 10.52L160.46 10.52Q160.17 10.23 160.10 9.63L160.10 9.63L160.10 9.63Q160.00 8.83 160.63 7.86L160.63 7.86L160.63 7.86Q160.71 7.74 160.82 7.62L160.82 7.62L160.82 7.62Q161.03 7.70 161.30 7.72L161.30 7.72L161.30 7.72Q161.70 7.74 162.20 7.51L162.20 7.51L162.20 7.51Q162.61 7.32 162.46 7.18L162.46 7.18L162.46 7.18Q162.18 6.90 161.75 6.84L161.75 6.84L161.75 6.84Q161.71 6.79 161.68 6.75L161.68 6.75L161.68 6.75Q161.47 6.45 161.36 5.89L161.36 5.89L161.36 5.89Q161.17 4.89 161.36 4.00L161.36 4.00L161.36 4.00Q161.62 2.70 162.39 2.04L162.39 2.04L162.39 2.04Q162.44 2.00 162.54 1.93L162.54 1.93L162.54 1.93Q162.54 1.93 162.54 1.93L162.54 1.93L162.54 1.93Q162.67 1.94 162.65 1.93L162.65 1.93L162.65 1.93Q163.24 2.02 163.12 2.62L163.12 2.62L163.12 2.62Q163.07 2.86 163.70 2.75L163.70 2.75L163.70 2.75Q164.01 2.69 164.26 2.58L164.26 2.58L164.26 2.58Q164.54 2.45 164.56 2.36L164.56 2.36L164.56 2.36Q164.70 1.63 164.01 1.42L164.01 1.42ZM173.45 9.37L173.45 9.37Q173.35 9.50 173.10 9.70L173.10 9.70L173.10 9.70Q173.06 9.73 172.96 9.80L172.96 9.80L172.96 9.80Q172.90 9.84 172.85 9.87L172.85 9.87L172.85 9.87Q172.74 9.94 172.74 9.93L172.74 9.93L172.74 9.93Q172.66 9.97 172.54 10.03L172.54 10.03L172.54 10.03Q172.52 10.04 172.46 10.06L172.46 10.06L172.46 10.06Q172.45 10.07 172.35 10.11L172.35 10.11L172.35 10.11Q172.33 10.11 172.26 10.14L172.26 10.14L172.26 10.14Q172.18 10.16 172.18 10.17L172.18 10.17L172.18 10.17Q172.09 10.19 171.99 10.21L171.99 10.21L171.99 10.21Q171.96 10.23 171.81 10.25L171.81 10.25L171.81 10.25Q171.81 10.25 171.76 10.26L171.76 10.26L171.76 10.26Q171.79 10.26 171.64 10.27L171.64 10.27L171.64 10.27Q171.57 10.28 171.45 10.29L171.45 10.29L171.45 10.29Q171.47 10.29 171.29 10.29L171.29 10.29L171.29 10.29Q171.37 10.03 171.73 8.24L171.73 8.24L171.73 8.24Q172.05 8.20 172.33 8.05L172.33 8.05L172.33 8.05Q172.45 7.99 172.59 7.93L172.59 7.93L172.59 7.93Q172.60 7.92 172.61 7.92L172.61 7.92L172.61 7.92Q172.61 7.92 172.61 7.92L172.61 7.92L172.61 7.92Q172.70 7.88 172.82 7.84L172.82 7.84L172.82 7.84Q172.83 7.84 172.83 7.83L172.83 7.83L172.84 7.83L172.84 7.83Q172.86 7.83 172.92 7.81L172.92 7.81L172.92 7.81Q173.00 7.79 173.00 7.79L173.00 7.79L173.00 7.79Q173.04 7.79 173.09 7.78L173.09 7.78L173.09 7.78Q173.13 7.77 173.17 7.77L173.17 7.77L173.17 7.77Q173.17 7.77 173.17 7.77L173.17 7.77L173.17 7.77Q173.20 7.77 173.22 7.77L173.22 7.77L173.22 7.77Q173.26 7.77 173.27 7.77L173.27 7.77L173.27 7.77Q173.28 7.77 173.33 7.78L173.33 7.78L173.33 7.78Q173.45 7.81 173.56 7.88L173.56 7.88L173.56 7.88Q173.78 8.03 173.78 8.46L173.78 8.46L173.78 8.46Q173.78 8.93 173.45 9.37L173.45 9.37ZM173.07 6.15L173.07 6.15Q172.58 6.95 171.89 7.54L171.89 7.54L171.89 7.54Q172.03 6.95 172.30 6.02L172.30 6.02L172.30 6.02Q173.03 3.45 173.22 2.44L173.22 2.44L173.22 2.44Q173.74 2.95 173.80 3.83L173.80 3.83L173.80 3.83Q173.87 4.83 173.07 6.15L173.07 6.15ZM173.39 7.25L173.39 7.25Q174.00 6.67 174.47 5.95L174.47 5.95L174.47 5.95Q175.37 4.56 175.25 3.30L175.25 3.30L175.25 3.30Q175.13 2.15 174.13 1.62L174.13 1.62L174.13 1.62Q173.10 1.08 171.50 1.55L171.50 1.55L171.50 1.55Q170.77 1.76 170.82 1.96L170.82 1.96L170.82 1.96Q170.89 2.20 171.62 1.99L171.62 1.99L171.62 1.99Q171.79 1.93 171.75 1.95L171.75 1.95L171.75 1.95Q171.81 1.94 171.81 1.93L171.81 1.93L171.81 1.93Q171.83 1.93 171.84 1.93L171.84 1.93L171.84 1.93Q171.88 1.93 171.91 1.93L171.91 1.93L171.91 1.93Q171.89 1.97 171.88 2.02L171.88 2.02L171.88 2.02Q171.73 3.23 170.86 6.28L170.86 6.28L170.86 6.28Q170.51 7.50 170.32 8.38L170.32 8.38L170.32 8.38Q169.82 10.71 169.83 10.66L169.83 10.66L169.83 10.66Q169.78 10.84 170.13 10.83L170.13 10.83L170.13 10.83Q170.19 10.87 170.32 10.88L170.32 10.88L170.32 10.88Q171.86 10.93 173.49 10.16L173.49 10.16L173.49 10.16Q175.10 9.39 175.24 8.16L175.24 8.16L175.24 8.16Q175.38 6.88 173.39 7.25L173.39 7.25ZM193.81 9.39L193.81 9.39Q193.64 9.60 193.41 9.84L193.41 9.84L193.41 9.84Q193.31 9.93 193.19 10.04L193.19 10.04L193.19 10.04Q193.15 10.08 193.07 10.13L193.07 10.13L193.07 10.13Q193.07 10.14 193.07 10.14L193.07 10.14L193.07 10.14Q193.06 10.14 193.05 10.15L193.05 10.15L193.05 10.15Q193.05 10.15 193.03 10.17L193.03 10.17L193.03 10.17Q192.97 10.16 192.94 10.14L192.94 10.14L192.94 10.14Q192.32 9.88 192.21 9.08L192.21 9.08L192.21 9.08Q192.10 8.32 192.43 7.57L192.43 7.57L192.43 7.57Q192.75 6.87 193.37 6.38L193.37 6.38L193.37 6.38Q193.61 7.14 194.37 8.61L194.37 8.61L194.37 8.61Q194.08 9.05 193.81 9.39L193.81 9.39ZM194.62 3.81L194.62 3.81Q194.72 3.23 195.17 2.67L195.17 2.67L195.17 2.67Q195.24 2.58 195.37 2.45L195.37 2.45L195.37 2.45Q195.82 2.80 195.54 3.52L195.54 3.52L195.54 3.52Q195.33 4.09 194.71 4.70L194.71 4.70L194.71 4.70Q194.65 4.75 194.58 4.83L194.58 4.83L194.58 4.83Q194.53 4.29 194.62 3.81L194.62 3.81ZM196.88 5.90L196.88 5.90Q196.14 5.96 195.90 6.24L195.90 6.24L195.90 6.24Q195.62 6.59 195.28 7.12L195.28 7.12L195.28 7.12Q194.87 6.24 194.70 5.55L194.70 5.55L194.70 5.55Q194.80 5.50 194.89 5.44L194.89 5.44L194.89 5.44Q195.64 4.99 196.14 4.47L196.14 4.47L196.14 4.47Q196.75 3.84 196.98 3.27L196.98 3.27L196.98 3.27Q197.31 2.45 196.74 1.96L196.74 1.96L196.74 1.96Q196.15 1.46 194.85 2.04L194.85 2.04L194.85 2.04Q194.19 2.32 193.66 3.02L193.66 3.02L193.66 3.02Q192.86 4.07 193.20 5.76L193.20 5.76L193.20 5.76Q192.31 6.28 191.92 6.60L191.92 6.60L191.92 6.60Q191.30 7.10 190.99 7.86L190.99 7.86L190.99 7.86Q190.67 8.61 190.74 9.41L190.74 9.41L190.74 9.41Q190.81 10.21 191.44 10.58L191.44 10.58L191.44 10.58Q191.99 10.88 192.83 10.73L192.83 10.73L192.83 10.73Q193.95 10.51 194.85 9.58L194.85 9.58L194.85 9.58Q195.26 10.45 195.43 11.15L195.43 11.15L195.43 11.15Q195.49 11.39 196.22 11.20L196.22 11.20L196.22 11.20Q196.94 11.01 196.89 10.76L196.89 10.76L196.89 10.76Q196.66 9.84 195.86 8.28L195.86 8.28L195.86 8.28Q196.07 7.95 196.41 7.39L196.41 7.39L196.41 7.39Q196.80 6.75 196.88 6.63L196.88 6.63L196.88 6.63Q196.98 6.47 197.08 6.32L197.08 6.32L197.08 6.32Q197.11 6.27 197.16 6.20L197.16 6.20L197.16 6.20Q197.21 6.14 197.22 6.13L197.22 6.13L197.22 6.13Q197.35 5.97 197.18 5.91L197.18 5.91L197.18 5.91Q197.07 5.88 196.88 5.90L196.88 5.90ZM221.94 2.21L221.94 2.21Q221.90 2.05 221.35 2.15L221.35 2.15L221.35 2.15Q220.65 2.28 220.49 2.54L220.49 2.54L220.49 2.54Q219.61 4.03 218.67 6.51L218.67 6.51L218.67 6.41L218.67 6.41Q218.67 5.55 218.51 2.12L218.51 2.12L218.51 2.12Q218.50 2.03 218.27 2.02L218.27 2.02L218.27 2.02Q218.13 1.92 217.71 2.00L217.71 2.00L217.71 2.00Q217 2.13 216.86 2.39L216.86 2.39L216.86 2.39Q214.72 6.30 214.12 11.14L214.12 11.14L214.12 11.14Q214.10 11.27 214.48 11.23L214.48 11.23L214.48 11.23Q214.73 11.21 214.91 11.16L214.91 11.16L214.91 11.16Q215.55 10.99 215.58 10.75L215.58 10.75L215.58 10.75Q215.98 7.51 217.15 4.58L217.15 4.58L217.15 4.58Q217.21 5.81 217.21 6.71L217.21 6.71L217.21 6.71Q217.22 8.26 217.14 8.86L217.14 8.86L217.14 8.86Q216.95 10.15 216.95 10.99L216.95 10.99L216.95 10.99Q216.95 11.20 217.63 11.03L217.63 11.03L217.63 11.03Q218.31 10.86 218.39 10.66L218.39 10.66L218.39 10.66Q218.87 9.61 219.59 7.67L219.59 7.67L219.59 7.67Q220.38 5.54 220.75 4.66L220.75 4.66L220.75 4.66Q220.79 5.91 220.55 7.85L220.55 7.85L220.55 7.85Q220.21 10.57 220.18 11.04L220.18 11.04L220.18 11.04Q220.17 11.12 220.39 11.12L220.39 11.12L220.39 11.12Q220.61 11.13 220.89 11.08L220.89 11.08L220.89 11.08Q221.61 10.94 221.64 10.65L221.64 10.65L221.64 10.65Q221.70 9.88 221.87 8.54L221.87 8.54L221.87 8.54Q222.07 7.03 222.13 6.43L222.13 6.43L222.13 6.43Q222.37 3.95 221.94 2.21L221.94 2.21ZM232.52 5.20L232.52 5.20Q232.40 6.64 232.13 7.92L232.13 7.92L232.13 7.92Q231.72 9.88 230.95 10.64L230.95 10.64L230.95 10.64Q230.86 10.55 230.79 10.38L230.79 10.38L230.79 10.38Q230.60 9.97 230.62 9.03L230.62 9.03L230.62 9.03Q230.64 7.34 231.22 5.48L231.22 5.48L231.22 5.48Q231.72 3.85 232.42 3.01L232.42 3.01L232.42 3.01Q232.49 3.25 232.54 3.62L232.54 3.62L232.54 3.62Q232.61 4.21 232.52 5.20L232.52 5.20ZM233.45 1.96L233.45 1.96Q233.25 1.79 232.51 2.05L232.51 2.05L232.51 2.05Q232.01 2.24 232.03 2.39L232.03 2.39L232.03 2.39Q231.78 2.48 231.60 2.63L231.60 2.63L231.60 2.63Q230.62 3.40 229.95 5.22L229.95 5.22L229.95 5.22Q229.41 6.70 229.22 8.50L229.22 8.50L229.22 8.50Q229.13 9.28 229.16 9.92L229.16 9.92L229.16 9.92Q229.20 10.77 229.56 11.13L229.56 11.13L229.56 11.13Q229.75 11.31 230.18 11.33L230.18 11.33L230.18 11.33Q230.72 11.36 231.55 11.02L231.55 11.02L231.55 11.02Q232.23 10.74 232.75 9.94L232.75 9.94L232.75 9.94Q233.22 9.21 233.54 7.85L233.54 7.85L233.54 7.85Q233.75 6.94 233.87 5.84L233.87 5.84L233.87 5.84Q234.04 4.44 234.04 3.78L234.04 3.78L234.04 3.78Q234.02 2.45 233.45 1.96L233.45 1.96ZM243.95 9.37L243.95 9.37Q243.86 9.50 243.61 9.70L243.61 9.70L243.61 9.70Q243.56 9.73 243.46 9.80L243.46 9.80L243.46 9.80Q243.41 9.84 243.35 9.87L243.35 9.87L243.35 9.87Q243.24 9.94 243.25 9.93L243.25 9.93L243.25 9.93Q243.16 9.97 243.04 10.03L243.04 10.03L243.04 10.03Q243.02 10.04 242.96 10.06L242.96 10.06L242.96 10.06Q242.96 10.07 242.85 10.11L242.85 10.11L242.85 10.11Q242.84 10.11 242.76 10.14L242.76 10.14L242.76 10.14Q242.69 10.16 242.68 10.17L242.68 10.17L242.68 10.17Q242.59 10.19 242.49 10.21L242.49 10.21L242.49 10.21Q242.46 10.23 242.32 10.25L242.32 10.25L242.32 10.25Q242.32 10.25 242.27 10.26L242.27 10.26L242.27 10.26Q242.29 10.26 242.15 10.27L242.15 10.27L242.15 10.27Q242.07 10.28 241.95 10.29L241.95 10.29L241.95 10.29Q241.98 10.29 241.80 10.29L241.80 10.29L241.80 10.29Q241.88 10.03 242.24 8.24L242.24 8.24L242.24 8.24Q242.56 8.20 242.83 8.05L242.83 8.05L242.83 8.05Q242.96 7.99 243.10 7.93L243.10 7.93L243.10 7.93Q243.11 7.92 243.11 7.92L243.11 7.92L243.11 7.92Q243.11 7.92 243.12 7.92L243.12 7.92L243.12 7.92Q243.20 7.88 243.33 7.84L243.33 7.84L243.33 7.84Q243.34 7.84 243.34 7.83L243.34 7.83L243.35 7.83L243.35 7.83Q243.37 7.83 243.43 7.81L243.43 7.81L243.43 7.81Q243.50 7.79 243.51 7.79L243.51 7.79L243.51 7.79Q243.55 7.79 243.59 7.78L243.59 7.78L243.59 7.78Q243.63 7.77 243.67 7.77L243.67 7.77L243.67 7.77Q243.67 7.77 243.68 7.77L243.68 7.77L243.68 7.77Q243.70 7.77 243.73 7.77L243.73 7.77L243.73 7.77Q243.76 7.77 243.78 7.77L243.78 7.77L243.78 7.77Q243.79 7.77 243.83 7.78L243.83 7.78L243.83 7.78Q243.95 7.81 244.06 7.88L244.06 7.88L244.06 7.88Q244.29 8.03 244.29 8.46L244.29 8.46L244.29 8.46Q244.29 8.93 243.95 9.37L243.95 9.37ZM243.58 6.15L243.58 6.15Q243.09 6.95 242.40 7.54L242.40 7.54L242.40 7.54Q242.54 6.95 242.81 6.02L242.81 6.02L242.81 6.02Q243.54 3.45 243.72 2.44L243.72 2.44L243.72 2.44Q244.24 2.95 244.30 3.83L244.30 3.83L244.30 3.83Q244.38 4.83 243.58 6.15L243.58 6.15ZM243.90 7.25L243.90 7.25Q244.51 6.67 244.97 5.95L244.97 5.95L244.97 5.95Q245.88 4.56 245.75 3.30L245.75 3.30L245.75 3.30Q245.64 2.15 244.63 1.62L244.63 1.62L244.63 1.62Q243.61 1.08 242.01 1.55L242.01 1.55L242.01 1.55Q241.27 1.76 241.33 1.96L241.33 1.96L241.33 1.96Q241.40 2.20 242.12 1.99L242.12 1.99L242.12 1.99Q242.30 1.93 242.25 1.95L242.25 1.95L242.25 1.95Q242.31 1.94 242.32 1.93L242.32 1.93L242.32 1.93Q242.33 1.93 242.35 1.93L242.35 1.93L242.35 1.93Q242.39 1.93 242.42 1.93L242.42 1.93L242.42 1.93Q242.40 1.97 242.39 2.02L242.39 2.02L242.39 2.02Q242.24 3.23 241.36 6.28L241.36 6.28L241.36 6.28Q241.01 7.50 240.82 8.38L240.82 8.38L240.82 8.38Q240.32 10.71 240.34 10.66L240.34 10.66L240.34 10.66Q240.28 10.84 240.64 10.83L240.64 10.83L240.64 10.83Q240.70 10.87 240.83 10.88L240.83 10.88L240.83 10.88Q242.37 10.93 244.00 10.16L244.00 10.16L244.00 10.16Q245.61 9.39 245.75 8.16L245.75 8.16L245.75 8.16Q245.88 6.88 243.90 7.25L243.90 7.25ZM254.26 2.53L254.26 2.53Q254.01 3.62 253.39 6.79L253.39 6.79L253.39 6.79Q253.16 8.03 252.96 8.93L252.96 8.93L252.96 8.93Q252.57 10.78 252.57 10.91L252.57 10.91L252.57 10.91Q252.57 10.99 252.79 11.00L252.79 11.00L252.79 11.00Q253.01 11.01 253.29 10.96L253.29 10.96L253.29 10.96Q254.02 10.81 254.03 10.52L254.03 10.52L254.03 10.52Q254.04 10.23 254.19 9.62L254.19 9.62L254.19 9.62Q254.27 9.32 254.43 8.57L254.43 8.57L254.43 8.57Q254.60 7.77 254.86 6.44L254.86 6.44L254.86 6.44Q255.45 3.36 255.70 2.27L255.70 2.27L255.70 2.27Q255.75 2.02 255.11 2.13L255.11 2.13L255.11 2.13Q254.81 2.19 254.56 2.31L254.56 2.31L254.56 2.31Q254.28 2.44 254.26 2.53L254.26 2.53ZM264.78 11.33L264.78 11.33Q263.74 11.36 263.30 11.16L263.30 11.16L263.30 11.16Q264.15 6.57 265.27 2.08L265.27 2.08L265.27 2.08Q265.34 1.83 264.69 1.95L264.69 1.95L264.69 1.95Q264.39 2.00 264.13 2.12L264.13 2.12L264.13 2.12Q263.85 2.25 263.83 2.34L263.83 2.34L263.83 2.34Q262.71 6.83 261.85 11.47L261.85 11.47L261.85 11.47Q261.76 11.56 261.83 11.61L261.83 11.61L261.83 11.61Q261.83 11.63 261.82 11.70L261.82 11.70L261.82 11.70Q261.82 11.74 261.81 11.78L261.81 11.78L261.81 11.78Q261.79 11.94 262.43 11.83L262.43 11.83L262.43 11.83Q262.92 11.95 263.83 11.92L263.83 11.92L263.83 11.92Q264.44 11.91 264.87 11.65L264.87 11.65L264.87 11.65Q265.04 11.54 265.02 11.44L265.02 11.44L265.02 11.44Q265.00 11.33 264.78 11.33L264.78 11.33ZM276.98 1.42L276.98 1.42Q276.27 1.19 275.08 1.57L275.08 1.57L275.08 1.57Q273.57 2.06 273.01 3.77L273.01 3.77L273.01 3.77Q272.67 4.83 272.84 6.11L272.84 6.11L272.84 6.11Q272.93 6.76 273.20 7.16L273.20 7.16L273.20 7.16Q272.78 7.38 272.49 7.70L272.49 7.70L272.49 7.70Q271.49 8.80 271.60 10.01L271.60 10.01L271.60 10.01Q271.67 10.70 272.15 11.11L272.15 11.11L272.15 11.11Q272.54 11.44 273.37 11.42L273.37 11.42L273.37 11.42Q274.20 11.39 274.91 10.95L274.91 10.95L274.91 10.95Q275.66 10.49 275.96 9.76L275.96 9.76L275.96 9.76Q276.02 9.61 275.74 9.60L275.74 9.60L275.74 9.60Q275.57 9.59 275.38 9.63L275.38 9.63L275.38 9.63Q274.63 9.76 274.52 10.02L274.52 10.02L274.52 10.02Q274.33 10.51 273.98 10.80L273.98 10.80L273.98 10.80Q273.96 10.81 273.95 10.82L273.95 10.82L273.95 10.82Q273.90 10.81 273.90 10.81L273.90 10.81L273.90 10.81Q273.83 10.79 273.75 10.75L273.75 10.75L273.75 10.75Q273.58 10.68 273.42 10.52L273.42 10.52L273.42 10.52Q273.14 10.23 273.06 9.63L273.06 9.63L273.06 9.63Q272.97 8.83 273.59 7.86L273.59 7.86L273.59 7.86Q273.68 7.74 273.78 7.62L273.78 7.62L273.78 7.62Q273.99 7.70 274.26 7.72L274.26 7.72L274.26 7.72Q274.67 7.74 275.16 7.51L275.16 7.51L275.16 7.51Q275.58 7.32 275.43 7.18L275.43 7.18L275.43 7.18Q275.14 6.90 274.72 6.84L274.72 6.84L274.72 6.84Q274.67 6.79 274.64 6.75L274.64 6.75L274.64 6.75Q274.44 6.45 274.33 5.89L274.33 5.89L274.33 5.89Q274.13 4.89 274.32 4.00L274.32 4.00L274.32 4.00Q274.59 2.70 275.35 2.04L275.35 2.04L275.35 2.04Q275.41 2.00 275.50 1.93L275.50 1.93L275.50 1.93Q275.51 1.93 275.51 1.93L275.51 1.93L275.51 1.93Q275.64 1.94 275.62 1.93L275.62 1.93L275.62 1.93Q276.20 2.02 276.08 2.62L276.08 2.62L276.08 2.62Q276.04 2.86 276.66 2.75L276.66 2.75L276.66 2.75Q276.97 2.69 277.22 2.58L277.22 2.58L277.22 2.58Q277.50 2.45 277.53 2.36L277.53 2.36L277.53 2.36Q277.66 1.63 276.98 1.42L276.98 1.42Z"></path></g></svg>